<svg width="46" height="45" viewBox="0 0 46 45" fill="none" xmlns="http://www.w3.org/2000/svg">
<path d="M30.4437 16.8909V15.0436H28.5964V11.3491H26.7491V7.65454H24.9018V3.95999H21.2073V7.65454H19.36V11.3491H17.5128V15.0436H15.6655V16.8909H4.58185V20.5854H6.42912V22.4327H8.27639V24.28H10.1237V26.1273H11.9709V33.5164H10.1237V37.2109H8.27639V40.9054H13.8182V39.0582H17.5128V37.2109H19.36V35.3636H26.7491V37.2109H28.5964V39.0582H32.2909V40.9054H37.8328V37.2109H35.9855V33.5164H34.1382V26.1273H35.9855V24.28H37.8328V22.4327H39.68V20.5854H41.5273V16.8909H30.4437ZM30.4437 22.4327V24.28H28.5964V27.9745H30.4437V31.6691H26.7491V29.8218H19.36V31.6691H15.6655V27.9745H17.5128V24.28H15.6655V22.4327H13.8182V20.5854H19.36V18.7382H21.2073V15.0436H24.9018V18.7382H26.7491V20.5854H32.2909V22.4327H30.4437Z" fill="black"/>
</svg>
