<svg width="128" height="128" viewBox="0 0 128 128" fill="none" xmlns="http://www.w3.org/2000/svg">
<g clip-path="url(#clip0_5_15971)">
<path fill-rule="evenodd" clip-rule="evenodd" d="M12 4.00012V12.0001H4V84.0001H8V88.0001H16V92.0001H24V96.0001H32V100H40V104H48V108H56V112H64V116H72V120H80V124H88V52.0001H92V124H96V36.0001H92V32.0001H88V28.0001H80V24.0001H72V20.0001H56V24.0001H52V20.0001H48V16.0001H44V12.0001H36V8.00012H28V4.00012H12ZM84 48.0001H88V52.0001H84V48.0001ZM76 44.0001H84V48.0001H76V44.0001ZM68 40.0001H76V44.0001H68V40.0001ZM60 36.0001H68V40.0001H60V36.0001ZM52 32.0001H60V36.0001H52V32.0001ZM44 28.0001H52V32.0001H44V28.0001ZM36 24.0001H44V28.0001H36V24.0001ZM28 20.0001H36V24.0001H28V20.0001ZM20 16.0001H28V20.0001H20V16.0001ZM20 16.0001V12.0001H12V16.0001H20Z" fill="#FFFF50"/>
<g clip-path="url(#clip1_5_15971)">
<path d="M53.1769 65.0001L53.1769 61.0001L54.909 62.0001L54.909 54.0001L51.4449 52.0001L51.4449 56.0001L49.7128 55.0001L49.7128 63.0001L41.0526 58.0001L41.0526 54.0001L42.7846 55.0001L42.7846 47.0001L39.3205 45.0001L39.3205 49.0001L37.5885 48.0001L37.5885 56.0001L25.4641 49.0001L25.4641 53.0001L35.8564 59.0001L35.8564 61.0001L34.1244 60.0001L34.1244 66.0001L25.4641 61.0001L25.4641 65.0001L32.3923 69.0001L32.3923 73.0001L30.6603 72.0001L30.6603 80.0001L34.1244 82.0001L34.1244 80.0001L34.1244 78.0001L35.8564 79.0001L35.8564 71.0001L44.5167 76.0001L44.5167 78.0001L44.5167 80.0001L42.7846 79.0001L42.7846 87.0001L46.2487 89.0001L46.2487 85.0001L47.9808 86.0001L47.9808 78.0001L60.1051 85.0001L60.1051 81.0001L49.7128 75.0001L49.7128 73.0001L51.4449 74.0001L51.4449 68.0001L60.1051 73.0001L60.1051 69.0001L53.1769 65.0001ZM47.9808 68.0001L46.2487 67.0001L46.2487 73.0001L37.5885 68.0001L37.5885 66.0001L39.3205 67.0001L39.3205 61.0001L47.9808 66.0001L47.9808 68.0001Z" fill="black"/>
</g>
<path d="M8 0.00012207H28V4.00012H12V12.0001H4V84.0001H8V88.0001H0V8.00012H8V0.00012207Z" fill="black"/>
<path d="M16 92.0001V88.0001H8V92.0001H16Z" fill="black"/>
<path d="M24 96.0001V92.0001H16V96.0001H24Z" fill="black"/>
<path d="M32 100V96.0001H24V100H32Z" fill="black"/>
<path d="M40 104V100H32V104H40Z" fill="black"/>
<path d="M48 108V104H40V108H48Z" fill="black"/>
<path d="M56 112V108H48V112H56Z" fill="black"/>
<path d="M64 116V112H56V116H64Z" fill="black"/>
<path d="M72 120V116H64V120H72Z" fill="black"/>
<path d="M80 124V120H72V124H80Z" fill="black"/>
<path d="M88 52.0001V124H80V128H108V124H112V120H116V116H120V112H124V108H128V88.0001H120V84.0001H112V80.0001H100V36.0001H96V32.0001H92V28.0001H88V24.0001H80V20.0001H72V16.0001H56V20.0001H52V16.0001H48V12.0001H44V8.00012H36V4.00012H28V8.00012H36V12.0001H44V16.0001H48V20.0001H52V24.0001H56V20.0001H72V24.0001H80V28.0001H88V32.0001H92V36.0001H96V124H92V52.0001H88Z" fill="black"/>
<path d="M84 48.0001V52.0001H88V48.0001H84Z" fill="black"/>
<path d="M76 44.0001H84V48.0001H76V44.0001Z" fill="black"/>
<path d="M68 40.0001H76V44.0001H68V40.0001Z" fill="black"/>
<path d="M60 36.0001H68V40.0001H60V36.0001Z" fill="black"/>
<path d="M52 32.0001H60V36.0001H52V32.0001Z" fill="black"/>
<path d="M44 28.0001H52V32.0001H44V28.0001Z" fill="black"/>
<path d="M36 24.0001H44V28.0001H36V24.0001Z" fill="black"/>
<path d="M28 20.0001H36V24.0001H28V20.0001Z" fill="black"/>
<path d="M20 16.0001H28V20.0001H20V16.0001Z" fill="black"/>
<path d="M20 16.0001V12.0001H12V16.0001H20Z" fill="black"/>
</g>
<defs>
<clipPath id="clip0_5_15971">
<rect width="128" height="128" fill="white"/>
</clipPath>
<clipPath id="clip1_5_15971">
<rect width="48" height="48" fill="white" transform="matrix(0.866025 0.5 -2.20305e-08 1 22 31.0001)"/>
</clipPath>
</defs>
</svg>
