<svg width="14" height="13" viewBox="0 0 14 13" fill="none" xmlns="http://www.w3.org/2000/svg">
<path d="M8.91604 5.16032V4.64124H8.39696V3.60307H7.87787V2.5649H7.35879V1.52673H6.32062V2.5649H5.80154V3.60307H5.28245V4.64124H4.76337V5.16032H1.64886V6.19849H2.16795V6.71757H2.68703V7.23666H3.20612V7.75574H3.7252V9.83208H3.20612V10.8702H2.68703V11.9084H4.24428V11.3893H5.28245V10.8702H5.80154V10.3512H7.87787V10.8702H8.39696V11.3893H9.43512V11.9084H10.9924V10.8702H10.4733V9.83208H9.95421V7.75574H10.4733V7.23666H10.9924V6.71757H11.5115V6.19849H12.0305V5.16032H8.91604ZM8.91604 6.71757V7.23666H8.39696V8.27483H8.91604V9.31299H7.87787V8.79391H5.80154V9.31299H4.76337V8.27483H5.28245V7.23666H4.76337V6.71757H4.24428V6.19849H5.80154V5.67941H6.32062V4.64124H7.35879V5.67941H7.87787V6.19849H9.43512V6.71757H8.91604Z" fill="black"/>
</svg>
