<svg width="24" height="24" viewBox="0 0 24 24" fill="none" xmlns="http://www.w3.org/2000/svg">
<path fill-rule="evenodd" clip-rule="evenodd" d="M9 11.9998H8V10.9998H7V4.99976H8V3.99976H9V2.99976H15V3.99976H16V4.99976H17V10.9998H16V11.9998H15V12.9998H9V11.9998ZM10 6.99976H9V8.99976H10V9.99976H11V10.9998H13V9.99976H14V8.99976H15V6.99976H14V5.99976H13V4.99976H11V5.99976H10V6.99976ZM19 14.9998V15.9998H20V20.9998H18V17.9998H17V16.9998H16V15.9998H8V16.9998H7V17.9998H6V20.9998H4V15.9998H5V14.9998H6V13.9998H18V14.9998H19Z" fill="white"/>
</svg>
