<svg width="20" height="20" viewBox="0 0 20 20" fill="none" xmlns="http://www.w3.org/2000/svg">
<path d="M14.85 6.67501V5.02501H15.675V1.72501H14.025V3.37501H13.2V6.67501H9.07502V5.02501H9.90002V1.72501H8.25002V3.37501H7.42502V6.67501H1.65002V8.32501H6.60002V9.15001H5.77502V11.625H1.65002V13.275H4.95002V14.925H4.12502V18.225H5.77502V17.4V16.575H6.60002V13.275H10.725V14.1V14.925H9.90002V18.225H11.55V16.575H12.375V13.275H18.15V11.625H13.2V10.8H14.025V8.32501H18.15V6.67501H14.85ZM12.375 9.15001H11.55V11.625H7.42502V10.8H8.25002V8.32501H12.375V9.15001Z" fill="black"/>
</svg>
