<svg width="25" height="25" viewBox="0 0 25 25" fill="none" xmlns="http://www.w3.org/2000/svg">
<path fill-rule="evenodd" clip-rule="evenodd" d="M9.92169 12.9396H8.92169V11.9396H7.92169V5.93958H8.92169V4.93958H9.92169V3.93958H15.9217V4.93958H16.9217V5.93958H17.9217V11.9396H16.9217V12.9396H15.9217V13.9396H9.92169V12.9396ZM10.9217 7.93958H9.92169V9.93958H10.9217V10.9396H11.9217V11.9396H13.9217V10.9396H14.9217V9.93958H15.9217V7.93958H14.9217V6.93958H13.9217V5.93958H11.9217V6.93958H10.9217V7.93958ZM19.9217 15.9396V16.9396H20.9217V21.9396H18.9217V18.9396H17.9217V17.9396H16.9217V16.9396H8.92169V17.9396H7.92169V18.9396H6.92169V21.9396H4.92169V16.9396H5.92169V15.9396H6.92169V14.9396H18.9217V15.9396H19.9217Z" fill="white"/>
</svg>
