<svg width="11" height="11" viewBox="0 0 11 11" fill="none" xmlns="http://www.w3.org/2000/svg">
<path d="M7.99998 3.77278V2.9546H8.40907V1.31824H7.59089V2.13642H7.1818V3.77278H5.13635V2.9546H5.54544V1.31824H4.72726V2.13642H4.31817V3.77278H1.45453V4.59096H3.90907V5.00006H3.49998V6.22733H1.45453V7.04551H3.09089V7.86369H2.6818V9.50006H3.49998V9.09096V8.68187H3.90907V7.04551H5.95453V7.4546V7.86369H5.54544V9.50006H6.36362V8.68187H6.77271V7.04551H9.63635V6.22733H7.1818V5.81824H7.59089V4.59096H9.63635V3.77278H7.99998ZM6.77271 5.00006H6.36362V6.22733H4.31817V5.81824H4.72726V4.59096H6.77271V5.00006Z" fill="black"/>
</svg>
