<svg width="21" height="21" viewBox="0 0 21 21" fill="none" xmlns="http://www.w3.org/2000/svg">
<path d="M13.6 8.17499V7.34999H12.775V5.69999H11.95V4.04999H11.125V2.39999H9.47499V4.04999H8.64999V5.69999H7.82499V7.34999H6.99999V8.17499H2.04999V9.82499H2.87499V10.65H3.69999V11.475H4.52499V12.3H5.34999V15.6H4.52499V17.25H3.69999V18.9H6.17499V18.075H7.82499V17.25H8.64999V16.425H11.95V17.25H12.775V18.075H14.425V18.9H16.9V17.25H16.075V15.6H15.25V12.3H16.075V11.475H16.9V10.65H17.725V9.82499H18.55V8.17499H13.6ZM13.6 10.65V11.475H12.775V13.125H13.6V14.775H11.95V13.95H8.64999V14.775H6.99999V13.125H7.82499V11.475H6.99999V10.65H6.17499V9.82499H8.64999V8.99999H9.47499V7.34999H11.125V8.99999H11.95V9.82499H14.425V10.65H13.6Z" fill="black"/>
</svg>
