<svg width="21" height="21" viewBox="0 0 21 21" fill="none" xmlns="http://www.w3.org/2000/svg">
<path d="M13.6 7.775V6.95H12.775V5.3H11.95V3.65H11.125V2H9.47499V3.65H8.64999V5.3H7.82499V6.95H6.99999V7.775H2.04999V9.425H2.87499V10.25H3.69999V11.075H4.52499V11.9H5.34999V15.2H4.52499V16.85H3.69999V18.5H6.17499V17.675H7.82499V16.85H8.64999V16.025H11.95V16.85H12.775V17.675H14.425V18.5H16.9V16.85H16.075V15.2H15.25V11.9H16.075V11.075H16.9V10.25H17.725V9.425H18.55V7.775H13.6ZM13.6 10.25V11.075H12.775V12.725H13.6V14.375H11.95V13.55H8.64999V14.375H6.99999V12.725H7.82499V11.075H6.99999V10.25H6.17499V9.425H8.64999V8.6H9.47499V6.95H11.125V8.6H11.95V9.425H14.425V10.25H13.6Z" fill="black"/>
</svg>
