<svg width="13" height="14" viewBox="0 0 13 14" fill="none" xmlns="http://www.w3.org/2000/svg">
<path d="M9.66417 4.86255V3.82438H10.1833V1.74805H9.14509V2.78621H8.626V4.86255H6.03058V3.82438H6.54967V1.74805H5.5115V2.78621H4.99241V4.86255H1.35883V5.90072H4.47333V6.4198H3.95425V7.97705H1.35883V9.01522H3.43516V10.0534H2.91608V12.1297H3.95425V11.6106V11.0916H4.47333V9.01522H7.06875V9.53431V10.0534H6.54967V12.1297H7.58783V11.0916H8.10692V9.01522H11.7405V7.97705H8.626V7.45797H9.14509V5.90072H11.7405V4.86255H9.66417ZM8.10692 6.4198H7.58783V7.97705H4.99241V7.45797H5.5115V5.90072H8.10692V6.4198Z" fill="black"/>
</svg>
