<svg width="20" height="20" viewBox="0 0 20 20" fill="none" xmlns="http://www.w3.org/2000/svg">
<path d="M14.9418 6.59584V4.95417H15.7626V1.67084H14.121V3.3125H13.3001V6.59584H9.19597V4.95417H10.0168V1.67084H8.37514V3.3125H7.55431V6.59584H1.80847V8.2375H6.73347V9.05834H5.91264V11.5208H1.80847V13.1625H5.09181V14.8042H4.27097V18.0875H5.91264V17.2667V16.4458H6.73347V13.1625H10.8376V13.9833V14.8042H10.0168V18.0875H11.6585V16.4458H12.4793V13.1625H18.2251V11.5208H13.3001V10.7H14.121V8.2375H18.2251V6.59584H14.9418ZM12.4793 9.05834H11.6585V11.5208H7.55431V10.7H8.37514V8.2375H12.4793V9.05834Z" fill="black"/>
</svg>
