<svg width="14" height="13" viewBox="0 0 14 13" fill="none" xmlns="http://www.w3.org/2000/svg">
<path d="M8.91604 4.77079V4.25171H8.39696V3.21354H7.87787V2.17537H7.35879V1.13721H6.32062V2.17537H5.80154V3.21354H5.28245V4.25171H4.76337V4.77079H1.64886V5.80896H2.16795V6.32805H2.68703V6.84713H3.20612V7.36621H3.7252V9.44255H3.20612V10.4807H2.68703V11.5189H4.24428V10.9998H5.28245V10.4807H5.80154V9.96163H7.87787V10.4807H8.39696V10.9998H9.43512V11.5189H10.9924V10.4807H10.4733V9.44255H9.95421V7.36621H10.4733V6.84713H10.9924V6.32805H11.5115V5.80896H12.0305V4.77079H8.91604ZM8.91604 6.32805V6.84713H8.39696V7.8853H8.91604V8.92347H7.87787V8.40438H5.80154V8.92347H4.76337V7.8853H5.28245V6.84713H4.76337V6.32805H4.24428V5.80896H5.80154V5.28988H6.32062V4.25171H7.35879V5.28988H7.87787V5.80896H9.43512V6.32805H8.91604Z" fill="black"/>
</svg>
