<svg width="13" height="12" viewBox="0 0 13 12" fill="none" xmlns="http://www.w3.org/2000/svg">
<path fill-rule="evenodd" clip-rule="evenodd" d="M9.35257 0.702698V1.16975H9.81962V1.6368H10.2867V3.50501H9.81962V3.97206H9.35257V1.6368H7.01731V3.97206H9.35257V4.90616H10.2867V7.24142H9.81962V7.70847H9.35257V8.17552H7.48436V7.70847H7.01731V10.5108H6.55026V10.9778H6.0832V11.4449H3.74795V10.5108H5.61615V10.0437H6.0832V8.17552H3.74795V7.24142H6.0832V4.90616H3.74795V3.97206H6.0832V1.6368H3.74795V3.97206H3.28089V3.50501H2.81384V1.6368H3.28089V1.16975H3.74795V0.702698H9.35257ZM7.48436 4.90616H8.88551V5.37321H9.35257V6.77437H8.88551V7.24142H7.01731V5.37321H7.48436V4.90616Z" fill="white"/>
<path d="M3.74795 4.90616H2.81384V7.24142H3.74795V4.90616Z" fill="white"/>
<path d="M3.74795 8.17552V10.5108H2.81384V8.64258H3.28089V8.17552H3.74795Z" fill="white"/>
</svg>
