<svg width="357" height="743" viewBox="0 0 357 743" fill="none" xmlns="http://www.w3.org/2000/svg">
<g clip-path="url(#clip0_3_30384)">
<rect width="357" height="743" fill="url(#paint0_linear_3_30384)"/>
<g clip-path="url(#clip1_3_30384)">
<g clip-path="url(#clip2_3_30384)">
<rect width="454.239" height="456.14" transform="translate(-29.3896 455.003)" fill="#FF90FF"/>
<path fill-rule="evenodd" clip-rule="evenodd" d="M32.7083 538.078C32.672 556.649 38.6282 574.731 49.6836 589.618C54.1752 595.664 56.6012 603.005 56.6012 610.547C56.6012 618.09 54.1752 625.431 49.6836 631.476C37.64 647.808 31.7034 667.875 32.9155 688.16C34.1275 708.446 42.4101 727.656 56.3119 742.425C59.6929 745.925 61.5841 750.61 61.5841 755.486C61.5841 760.363 59.6929 765.048 56.3119 768.548C47.0438 778.352 40.1982 790.204 36.3253 803.151C32.4523 816.097 31.6605 829.775 34.0141 843.085C37.9884 859.901 46.4597 875.307 58.5139 887.643C70.5682 899.979 85.7482 908.775 102.416 913.083C115.113 915.659 128.22 915.38 140.797 912.268C153.375 909.155 165.11 903.286 175.162 895.082C185.215 886.877 193.335 876.541 198.939 864.813C204.543 853.086 207.493 840.257 207.578 827.25V802.942C207.578 798.576 208.436 794.252 210.103 790.22C211.769 786.187 214.213 782.525 217.292 779.442C220.372 776.36 224.026 773.917 228.046 772.256C232.067 770.594 236.375 769.745 240.723 769.759H277.485C295.097 769.875 312.321 764.57 326.839 754.558C341.357 744.546 352.472 730.308 358.687 713.76C364.902 697.212 365.92 679.149 361.602 662.004C357.284 644.858 347.838 629.452 334.537 617.86C333.565 616.919 332.79 615.791 332.262 614.543C331.734 613.296 331.463 611.954 331.463 610.598C331.463 609.242 331.734 607.9 332.262 606.652C332.79 605.405 333.565 604.277 334.537 603.336C347.821 591.728 357.25 576.317 361.557 559.171C365.865 542.025 364.845 523.966 358.634 507.419C352.424 490.872 341.319 476.63 326.813 466.605C312.308 456.58 295.094 451.252 277.485 451.337H119.39C108.024 451.31 96.7658 453.533 86.2569 457.88C75.7479 462.226 66.1953 468.609 58.1449 476.665C50.0945 484.721 43.7035 494.292 39.339 504.829C34.9745 515.367 32.7214 526.665 32.7083 538.078Z" fill="#4D7BFF"/>
</g>
<g clip-path="url(#clip3_3_30384)">
<rect width="454.239" height="456.14" transform="translate(-29.3896 -1.13696)" fill="#FFFF50"/>
<path d="M202.571 467.166C238.321 467.234 273.63 459.244 305.886 443.787C338.142 428.33 366.521 405.8 388.924 377.864C395.518 369.684 400.441 360.281 403.411 350.192C406.381 340.104 407.341 329.528 406.235 319.068C405.128 308.607 401.978 298.468 396.964 289.229C391.95 279.989 385.171 271.831 377.012 265.218C368.854 258.606 359.476 253.67 349.415 250.692C339.354 247.714 328.806 246.752 318.375 247.861C307.943 248.97 297.831 252.128 288.617 257.156C279.402 262.184 271.265 268.982 264.671 277.163C254.335 290.019 240.285 299.353 224.448 303.887C208.612 308.42 191.765 307.93 176.218 302.484C160.67 297.037 147.184 286.901 137.608 273.466C128.032 260.031 122.836 243.954 122.732 227.441C122.628 210.927 127.621 194.786 137.027 181.23C146.433 167.675 159.791 157.369 175.268 151.726C190.746 146.084 207.586 145.38 223.478 149.713C239.37 154.045 253.536 163.201 264.034 175.925C270.677 184.186 278.89 191.041 288.197 196.093C297.504 201.144 307.719 204.292 318.249 205.352C328.779 206.412 339.414 205.363 349.536 202.268C359.659 199.172 369.067 194.091 377.215 187.319C385.363 180.547 392.088 172.22 397 162.82C401.911 153.42 404.911 143.136 405.826 132.564C406.741 121.992 405.551 111.343 402.328 101.236C399.104 91.1285 393.91 81.7641 387.046 73.6864C364.598 46.4426 336.417 24.5155 304.524 9.47666C272.631 -5.56222 237.814 -13.3405 202.571 -13.3006C70.4625 -13.3006 -36.9603 94.4659 -36.9603 226.933C-36.9603 359.4 70.4625 467.166 202.571 467.166Z" fill="#FF90FF"/>
</g>
</g>
</g>
<defs>
<linearGradient id="paint0_linear_3_30384" x1="178.5" y1="0" x2="178.5" y2="743" gradientUnits="userSpaceOnUse">
<stop stop-color="#FF5656"/>
<stop offset="1" stop-color="#FC6E6E" stop-opacity="0"/>
</linearGradient>
<clipPath id="clip0_3_30384">
<rect width="357" height="743" fill="white"/>
</clipPath>
<clipPath id="clip1_3_30384">
<rect width="1151.59" height="191.932" fill="white" transform="translate(-0.599792 413.243)"/>
</clipPath>
<clipPath id="clip2_3_30384">
<rect width="454.239" height="456.14" fill="white" transform="translate(-29.3896 455.003)"/>
</clipPath>
<clipPath id="clip3_3_30384">
<rect width="454.239" height="456.14" fill="white" transform="translate(-29.3896 -1.13696)"/>
</clipPath>
</defs>
</svg>
