<svg width="21" height="20" viewBox="0 0 21 20" fill="none" xmlns="http://www.w3.org/2000/svg">
<path d="M13.9091 7.72727V6.90909H13.0909V5.27273H12.2727V3.63636H11.4545V2H9.81817V3.63636H8.99998V5.27273H8.1818V6.90909H7.36362V7.72727H2.45453V9.36364H3.27271V10.1818H4.09089V11H4.90907V11.8182H5.72726V15.0909H4.90907V16.7273H4.09089V18.3636H6.54544V17.5455H8.1818V16.7273H8.99998V15.9091H12.2727V16.7273H13.0909V17.5455H14.7273V18.3636H17.1818V16.7273H16.3636V15.0909H15.5454V11.8182H16.3636V11H17.1818V10.1818H18V9.36364H18.8182V7.72727H13.9091ZM13.9091 10.1818V11H13.0909V12.6364H13.9091V14.2727H12.2727V13.4545H8.99998V14.2727H7.36362V12.6364H8.1818V11H7.36362V10.1818H6.54544V9.36364H8.99998V8.54545H9.81817V6.90909H11.4545V8.54545H12.2727V9.36364H14.7273V10.1818H13.9091Z" fill="black"/>
</svg>
