<svg width="20" height="20" viewBox="0 0 20 20" fill="none" xmlns="http://www.w3.org/2000/svg">
<path fill-rule="evenodd" clip-rule="evenodd" d="M8.99998 2.54541V3.36359H8.1818V4.18177H7.36362V4.99996H6.54544V5.81814H5.72726V6.63632H4.90907V7.4545H4.09089V8.27268H3.27271V9.09086H2.45453V10.7272H3.27271V11.5454H4.09089V12.3636H4.90907V13.1818H5.72726V14H6.54544V14.8181H7.36362V15.6363H8.1818V16.4545H8.99998V17.2727H10.6363V2.54541H8.99998ZM8.99998 13.1818H8.1818V12.3636H7.36362V11.5454H6.54544V10.7272H5.72726V9.09086H6.54544V8.27268H7.36362V7.4545H8.1818V6.63632H8.99998V13.1818ZM13.0909 11.5455H13.9091V8.27274H13.0909V7.45456H12.2727V12.3636H13.0909V11.5455ZM15.5455 5.00001V5.81819H16.3636V14H15.5455V14.8182H12.2727V13.1818H13.9091V12.3636H14.7273V7.45456H13.9091V6.63637H12.2727V5.00001H15.5455Z" fill="black"/>
</svg>
