<svg width="24" height="24" viewBox="0 0 24 24" fill="none" xmlns="http://www.w3.org/2000/svg">
<path fill-rule="evenodd" clip-rule="evenodd" d="M18 0.00012207V1.00012H19V2.00012H20V6.00012H19V7.00012H18V2.00012H13V7.00012H18V9.00012H20V14.0001H19V15.0001H18V16.0001H14V15.0001H13V21.0001H12V22.0001H11V23.0001H6V21.0001H10V20.0001H11V16.0001H6V14.0001H11V9.00012H6V7.00012H11V2.00012H6V7.00012H5V6.00012H4V2.00012H5V1.00012H6V0.00012207H18ZM14 9.00012H17V10.0001H18V13.0001H17V14.0001H13V10.0001H14V9.00012Z" fill="white"/>
<path d="M6 9.00012H4V14.0001H6V9.00012Z" fill="white"/>
<path d="M6 16.0001V21.0001H4V17.0001H5V16.0001H6Z" fill="white"/>
</svg>
