<svg width="1770" height="930" viewBox="0 0 1770 930" fill="none" xmlns="http://www.w3.org/2000/svg">
<g clip-path="url(#clip0_2_17485)">
<rect width="1770" height="930" fill="url(#paint0_linear_2_17485)" fill-opacity="0.46"/>
<g clip-path="url(#clip1_2_17485)">
<g clip-path="url(#clip2_2_17485)">
<rect width="698.167" height="701.088" transform="translate(652.995 699.34)" fill="#FFFF50"/>
<path fill-rule="evenodd" clip-rule="evenodd" d="M1004.71 1017.54C1092.86 1016.04 1163.85 943.818 1163.85 854.947C1163.85 765.136 1091.34 692.329 1001.91 692.329C912.469 692.329 839.966 765.136 839.966 854.947C839.966 943.354 910.219 1015.28 997.723 1017.51L886.651 1129.05L886.63 1129.07C823.353 1192.61 823.353 1295.63 886.63 1359.17C949.907 1422.72 1052.5 1422.72 1115.78 1359.17C1179.05 1295.63 1179.05 1192.61 1115.78 1129.07L1004.71 1017.54Z" fill="#7FFF5B"/>
</g>
<rect width="698.167" height="701.088" transform="translate(652.995 -1.7478)" fill="#FF5C5C"/>
<g clip-path="url(#clip3_2_17485)">
<rect width="698.167" height="701.088" transform="translate(-45.1719 699.34)" fill="#FF90FF"/>
<path fill-rule="evenodd" clip-rule="evenodd" d="M50.2726 827.027C50.2169 855.57 59.3715 883.363 76.3637 906.245C83.2673 915.537 86.9962 926.82 86.9962 938.413C86.9962 950.006 83.2673 961.289 76.3637 970.581C57.8527 995.683 48.7282 1026.53 50.5911 1057.7C52.4541 1088.88 65.1843 1118.41 86.5514 1141.11C91.7481 1146.49 94.6548 1153.69 94.6548 1161.18C94.6548 1168.68 91.7481 1175.88 86.5514 1181.26C72.3064 1196.33 61.7847 1214.55 55.8319 1234.44C49.8792 1254.34 48.6622 1275.37 52.2796 1295.82C58.3881 1321.67 71.4087 1345.35 89.936 1364.31C108.463 1383.27 131.795 1396.79 157.413 1403.41C176.929 1407.37 197.074 1406.94 216.406 1402.16C235.737 1397.37 253.775 1388.35 269.225 1375.74C284.675 1363.13 297.156 1347.25 305.77 1329.22C314.383 1311.19 318.918 1291.48 319.048 1271.48V1234.12C319.048 1227.41 320.366 1220.77 322.928 1214.57C325.49 1208.37 329.246 1202.74 333.979 1198C338.712 1193.27 344.328 1189.51 350.508 1186.96C356.688 1184.4 363.309 1183.1 369.992 1183.12H426.495C453.564 1183.3 480.038 1175.15 502.353 1159.76C524.667 1144.37 541.75 1122.48 551.303 1097.05C560.856 1071.62 562.419 1043.85 555.782 1017.5C549.146 991.148 534.629 967.469 514.184 949.653C512.69 948.207 511.5 946.472 510.688 944.555C509.876 942.637 509.459 940.574 509.459 938.49C509.459 936.407 509.876 934.344 510.688 932.426C511.5 930.508 512.69 928.775 514.184 927.329C534.601 909.488 549.094 885.8 555.715 859.447C562.335 833.094 560.768 805.337 551.222 779.905C541.676 754.472 524.609 732.582 502.313 717.173C480.017 701.765 453.561 693.575 426.495 693.706H183.502C166.034 693.665 148.729 697.082 132.577 703.762C116.425 710.442 101.742 720.253 89.3688 732.635C76.9952 745.017 67.1724 759.727 60.4641 775.924C53.7558 792.12 50.2929 809.486 50.2726 827.027Z" fill="#4D7BFF"/>
</g>
<g clip-path="url(#clip4_2_17485)">
<rect width="698.167" height="701.088" transform="translate(-45.1719 -1.74756)" fill="#FFFF50"/>
<path d="M311.351 718.035C366.3 718.14 420.569 705.859 470.147 682.102C519.725 658.344 563.343 623.716 597.777 580.779C607.913 568.205 615.479 553.752 620.044 538.247C624.609 522.741 626.084 506.485 624.384 490.408C622.683 474.33 617.842 458.746 610.135 444.545C602.429 430.344 592.008 417.804 579.468 407.641C566.929 397.478 552.515 389.892 537.052 385.314C521.588 380.737 505.376 379.258 489.342 380.963C473.309 382.667 457.767 387.522 443.604 395.25C429.442 402.977 416.936 413.426 406.8 426C390.913 445.76 369.318 460.107 344.978 467.075C320.637 474.042 294.743 473.289 270.847 464.918C246.95 456.547 226.221 440.968 211.503 420.318C196.785 399.668 188.799 374.958 188.639 349.577C188.479 324.196 196.154 299.386 210.611 278.552C225.068 257.717 245.599 241.877 269.388 233.204C293.177 224.531 319.06 223.45 343.486 230.109C367.912 236.768 389.686 250.841 405.821 270.398C416.031 283.095 428.654 293.631 442.959 301.395C457.264 309.16 472.964 313.997 489.149 315.626C505.334 317.255 521.68 315.644 537.238 310.886C552.797 306.128 567.257 298.318 579.781 287.91C592.304 277.501 602.64 264.702 610.189 250.255C617.738 235.807 622.35 220 623.755 203.751C625.161 187.502 623.333 171.135 618.378 155.6C613.423 140.065 605.44 125.672 594.891 113.256C560.388 71.3824 517.074 37.6804 468.054 14.5656C419.034 -8.54914 365.521 -20.5043 311.351 -20.443C108.301 -20.443 -56.808 145.194 -56.808 348.796C-56.808 552.398 108.301 718.035 311.351 718.035Z" fill="#FF90FF"/>
</g>
<g clip-path="url(#clip5_2_17485)">
<rect width="698.167" height="701.088" transform="translate(1351.16 699.34)" fill="#FF90FF"/>
<path fill-rule="evenodd" clip-rule="evenodd" d="M1700.92 836.675L1591.03 900.386V1027.81L1700.92 1091.52L1810.81 1027.81V900.386L1700.92 836.675ZM1929.25 831.719L1700.92 699.34L1472.59 831.719V1096.48L1700.92 1228.85L1929.25 1096.48V831.719Z" fill="#FF5C5C"/>
</g>
<g clip-path="url(#clip6_2_17485)">
<rect width="698.167" height="701.088" transform="translate(1351.16 -1.74756)" fill="#4D7BFF"/>
<path d="M1872.26 -1.74756H1655.59V143.302H1479.04V699.338H1695.71L1695.71 284.331C1695.71 246.502 1726.25 215.834 1763.93 215.834C1801.6 215.834 1832.14 246.502 1832.14 284.331L1832.14 700.655H2051.14V279.276H2000.66V135.248H1952.51V62.7165H1872.26V-1.74756Z" fill="#7FFF5B"/>
</g>
</g>
</g>
<defs>
<linearGradient id="paint0_linear_2_17485" x1="885" y1="0" x2="885" y2="930" gradientUnits="userSpaceOnUse">
<stop stop-color="#FF5656"/>
<stop offset="1" stop-color="#FC6E6E" stop-opacity="0"/>
</linearGradient>
<clipPath id="clip0_2_17485">
<rect width="1770" height="930" fill="white"/>
</clipPath>
<clipPath id="clip1_2_17485">
<rect width="1770" height="295" fill="white" transform="translate(-0.921875 635.156)"/>
</clipPath>
<clipPath id="clip2_2_17485">
<rect width="698.167" height="701.088" fill="white" transform="translate(652.995 699.34)"/>
</clipPath>
<clipPath id="clip3_2_17485">
<rect width="698.167" height="701.088" fill="white" transform="translate(-45.1719 699.34)"/>
</clipPath>
<clipPath id="clip4_2_17485">
<rect width="698.167" height="701.088" fill="white" transform="translate(-45.1719 -1.74756)"/>
</clipPath>
<clipPath id="clip5_2_17485">
<rect width="698.167" height="701.088" fill="white" transform="translate(1351.16 699.34)"/>
</clipPath>
<clipPath id="clip6_2_17485">
<rect width="698.167" height="701.088" fill="white" transform="translate(1351.16 -1.74756)"/>
</clipPath>
</defs>
</svg>
