<svg width="23" height="23" viewBox="0 0 23 23" fill="none" xmlns="http://www.w3.org/2000/svg">
<path d="M16.68 7.54908V5.70181H17.6037V2.00726H15.7564V3.85454H14.8328V7.54908H10.2146V5.70181H11.1382V2.00726H9.29095V3.85454H8.36731V7.54908H1.90186V9.39635H7.44367V10.32H6.52004V13.0909H1.90186V14.9382H5.5964V16.7854H4.67276V20.48H6.52004V19.5564V18.6327H7.44367V14.9382H12.0619V15.8618V16.7854H11.1382V20.48H12.9855V18.6327H13.9091V14.9382H20.3746V13.0909H14.8328V12.1673H15.7564V9.39635H20.3746V7.54908H16.68ZM13.9091 10.32H12.9855V13.0909H8.36731V12.1673H9.29095V9.39635H13.9091V10.32Z" fill="black"/>
</svg>
