<svg width="45" height="45" viewBox="0 0 45 45" fill="none" xmlns="http://www.w3.org/2000/svg">
<path fill-rule="evenodd" clip-rule="evenodd" d="M20.44 6.0582V7.90547H18.5928V9.75274H16.7455V11.6H14.8982V13.4473H13.0509V15.2946H11.2037V17.1418H9.3564V18.9891H7.50912V20.8364H5.66185V24.5309H7.50912V26.3782H9.3564V28.2255H11.2037V30.0727H13.0509V31.92H14.8982V33.7673H16.7455V35.6146H18.5928V37.4618H20.44V39.3091H24.1346V6.0582H20.44ZM20.44 30.0727H18.5928V28.2255H16.7455V26.3782H14.8982V24.5309H13.0509V20.8364H14.8982V18.9891H16.7455V17.1418H18.5928V15.2946H20.44V30.0727ZM29.6764 26.3782H31.5237V18.9891H29.6764V17.1418H27.8291V28.2255H29.6764V26.3782ZM35.2182 11.6V13.4473H37.0655V31.92H35.2182V33.7673H27.8291V30.0728H31.5237V28.2255H33.3709V17.1418H31.5237V15.2946H27.8291V11.6H35.2182Z" fill="black"/>
</svg>
