<svg width="393" height="852" viewBox="0 0 393 852" fill="none" xmlns="http://www.w3.org/2000/svg">
<path d="M945 437.324C945 703.701 666.073 919.643 322 919.643M945 437.324C945 170.946 666.073 -44.9952 322 -44.9952M945 437.324H-301M322 919.643C-22.0734 919.643 -301 703.701 -301 437.324M322 919.643V-44.9952M-301 437.324C-301 170.946 -22.0734 -44.9952 322 -44.9952M322 -45C88.5537 -4.49699 -88.7909 196.036 -88.791 437.319C-88.791 678.602 88.5535 879.135 322 919.638M322 -45C22.1709 -4.497 -205.603 196.036 -205.603 437.319C-205.603 678.602 22.1708 879.135 322 919.638M322 -45C205.773 19.4437 121.472 211.015 121.472 437.319C121.472 663.624 205.773 855.194 322 919.638M322 -45C260.891 59.9491 220.762 236.817 220.762 437.319C220.762 637.821 260.891 814.689 322 919.638M322 -45C143.71 19.4437 14.3934 211.014 14.3934 437.319C14.3933 663.624 143.71 855.194 322 919.638M322 919.645C555.447 879.142 732.791 678.609 732.791 437.326C732.791 196.043 555.447 -4.48992 322.001 -44.993M322 919.645C621.829 879.142 849.604 678.609 849.604 437.326C849.604 196.043 621.83 -4.48991 322.001 -44.993M322 919.645C438.228 855.201 522.529 663.631 522.529 437.326C522.529 211.022 438.228 19.4508 322.001 -44.993M322 919.645C383.11 814.696 423.238 637.828 423.238 437.326C423.238 236.824 383.11 59.9562 322.001 -44.993M322 919.645C500.29 855.201 629.607 663.631 629.607 437.326C629.607 211.022 500.291 19.4508 322.001 -44.993M-227.02 208.223C-83.9013 271.752 109.343 310.715 321.999 310.715C534.656 310.715 727.9 271.752 871.018 208.223M915.797 289.614C751.133 344.454 545.303 377.034 322 377.034C98.6967 377.034 -107.134 344.454 -271.797 289.614M-164.719 135.874C-34.628 204.39 135.639 245.903 321.999 245.903C508.359 245.903 678.626 204.39 808.718 135.874M-10.9165 28.8601C84.4603 84.0992 198.92 116.28 321.999 116.28C445.078 116.28 559.538 84.0992 654.915 28.8601M451.466 -34.6162C410.693 -17.988 367.181 -9.00178 321.999 -9.00178C276.817 -9.00178 233.305 -17.988 192.532 -34.6162M732.79 74.0772C638.878 139.122 488.762 181.092 321.999 181.092C155.237 181.092 5.1209 139.122 -88.7913 74.0772M559.518 -8.82139C495.016 31.6623 412.252 55.9902 321.999 55.9902C231.746 55.9902 148.982 31.6623 84.4802 -8.82139M871.019 666.422C727.9 602.893 534.656 563.929 322 563.929C109.343 563.929 -83.9006 602.893 -227.019 666.422M-271.798 585.031C-107.134 530.19 98.6962 497.61 321.999 497.61C545.302 497.61 751.133 530.19 915.796 585.031M808.718 738.77C678.626 670.254 508.359 628.741 321.999 628.741C135.639 628.741 -34.6279 670.254 -164.719 738.77M654.914 845.785C559.537 790.545 445.078 758.364 321.999 758.364C198.919 758.364 84.4598 790.545 -10.917 845.785M192.532 909.261C233.305 892.632 276.818 883.646 322 883.646C367.181 883.646 410.694 892.632 451.467 909.261M-88.7909 800.567C5.12127 735.523 155.237 693.553 322 693.553C488.762 693.553 638.878 735.523 732.79 800.567M84.4801 883.466C148.982 842.982 231.746 818.654 321.999 818.654C412.252 818.654 495.015 842.982 559.518 883.466" stroke="white" stroke-width="0.502419"/>
</svg>
